<svg width="25" height="24" viewBox="0 0 25 24" fill="none" xmlns="http://www.w3.org/2000/svg">
<path fill-rule="evenodd" clip-rule="evenodd" d="M18.8404 11.4197L13.7684 6.23986C13.4463 5.92005 12.7921 5.92005 12.4703 6.23986C12.1483 6.55997 12.1483 7.0732 12.4703 7.39308L16.4338 11.1845H7.56981C7.11436 11.1845 6.75 11.5465 6.75 11.9993C6.75 12.452 7.11436 12.8143 7.56981 12.8143H16.4338L12.4703 16.6057C12.1483 16.9256 12.1818 17.4153 12.4703 17.7586C12.7269 18.0639 12.985 18.0639 13.1917 18.0639C13.398 18.0639 13.6106 17.9855 13.7684 17.8225L18.8345 12.5787C19.1624 12.253 19.1624 11.7336 18.8404 11.4197Z" fill="white"/>
</svg>
