<svg width="24" height="24" viewBox="0 0 24 24" fill="none" xmlns="http://www.w3.org/2000/svg">
<path fill-rule="evenodd" clip-rule="evenodd" d="M12.75 15.145C12.75 13.262 11.8435 11.8701 9.97064 11.3484C11.3371 10.7054 12.0497 9.7313 12.0497 8.21612C12.0497 5.22855 9.78913 4.5 7.18096 4.5H0V19.5H7.38207C10.1501 19.5 12.75 18.1927 12.75 15.145ZM3.34776 7.06065H6.48911C7.69676 7.06065 8.78376 7.39487 8.78376 8.77453C8.78376 10.0482 7.93809 10.5608 6.74178 10.5608H3.34776V7.06065ZM3.34638 12.8218V16.9526H6.92603C8.28839 16.9526 9.40116 16.4788 9.40116 14.9636C9.40116 13.427 8.46886 12.8218 6.99513 12.8218H3.34638ZM23.8073 15.9112C23.0241 18.3518 21.3967 19.5 18.8839 19.5C15.5622 19.5 13.5 17.2206 13.5 13.897C13.5 10.6946 15.6764 8.25 18.8829 8.25C22.3462 8.25 24.2195 11.1661 23.9795 14.5878H16.3907C16.3907 16.2976 17.2801 17.3037 18.9734 17.3037C19.851 17.3037 20.9825 16.8221 21.257 15.9112H23.8073ZM21.0967 12.7438C20.9747 11.3292 20.2446 10.4643 18.7934 10.4643C17.4081 10.4643 16.4901 11.3413 16.3946 12.7438H21.0967ZM21.75 5.25H15.75V6.75H21.75V5.25Z" fill="black"/>
</svg>
