<svg width="24" height="24" viewBox="0 0 24 24" fill="none" xmlns="http://www.w3.org/2000/svg">
<path fill-rule="evenodd" clip-rule="evenodd" d="M21.4326 4.0865C20.2545 2.9082 18.6948 2.26419 17.0299 2.26419C15.3653 2.26419 13.8006 2.91309 12.6226 4.09115L12.0072 4.70648L11.3823 4.08161C10.2041 2.90355 8.63493 2.25 6.97008 2.25C5.31013 2.25 3.74569 2.89866 2.5721 4.07207C1.39403 5.25032 0.745374 6.81481 0.750025 8.4796C0.750025 10.1442 1.40357 11.704 2.58164 12.8823L11.5398 21.8403C11.6637 21.9644 11.8307 22.0312 11.9928 22.0312C12.1551 22.0312 12.3221 21.969 12.446 21.8451L21.4231 12.9014C22.6013 11.7231 23.25 10.1587 23.25 8.49385C23.2549 6.82924 22.6109 5.26457 21.4326 4.0865ZM20.5168 11.9902L11.9928 20.481L3.48811 11.9761C2.5532 11.0411 2.03804 9.80094 2.03804 8.4796C2.03804 7.15831 2.54831 5.91812 3.48322 4.98809C4.41343 4.05782 5.65369 3.54267 6.97008 3.54267C8.29137 3.54267 9.53627 4.05782 10.4712 4.99274L11.5493 6.07064C11.802 6.32357 12.2075 6.32357 12.4605 6.07064L13.5288 5.00228C14.4637 4.06736 15.7086 3.55221 17.0253 3.55221C18.3417 3.55221 19.5819 4.06736 20.5168 4.99739C21.4517 5.93255 21.9623 7.17256 21.9623 8.49385C21.9669 9.81513 21.4517 11.0554 20.5168 11.9902Z" fill="black"/>
</svg>
