<svg width="24" height="24" viewBox="0 0 24 24" fill="none" xmlns="http://www.w3.org/2000/svg">
<path fill-rule="evenodd" clip-rule="evenodd" d="M22.6907 12.0952C22.6907 9.26511 21.5884 6.60262 19.5882 4.60234C17.5881 2.60222 14.9256 1.5 12.0952 1.5C9.26511 1.5 6.60262 2.60222 4.60234 4.60234C2.60222 6.60262 1.5 9.26511 1.5 12.0952V17.1117C1.5 19.9465 3.80859 22.2551 6.64338 22.2551C6.98356 22.2551 7.25575 21.9831 7.25575 21.6429V12.5852C7.25575 12.245 6.98356 11.9728 6.64338 11.9728C5.07404 11.9728 3.66793 12.6759 2.72474 13.7871V12.0952C2.72474 6.9293 6.9293 2.72474 12.0952 2.72474C17.2614 2.72474 21.466 6.9293 21.466 12.0952C21.466 12.1362 21.4704 12.1769 21.4795 12.2177C21.4704 12.2587 21.466 12.2994 21.466 12.3402V14.032C20.5226 12.9209 19.1165 12.2177 17.5471 12.2177C17.2069 12.2177 16.9347 12.4899 16.9347 12.8301V21.8879C16.9347 22.2281 17.2069 22.5 17.5471 22.5C20.3819 22.5 22.6907 20.1915 22.6907 17.3567V12.3402C22.6907 12.2994 22.6861 12.2587 22.677 12.2177C22.6861 12.1769 22.6907 12.1362 22.6907 12.0952ZM6.02655 13.2429V20.9808C4.1578 20.6857 2.72005 19.0622 2.72005 17.1117C2.7247 15.1615 4.1578 13.5376 6.02655 13.2429ZM18.1642 21.2257V13.4878C20.0327 13.7826 21.4704 15.4064 21.4704 17.3566C21.466 19.3115 20.0327 20.9307 18.1642 21.2257Z" fill="black"/>
</svg>
