<svg width="24" height="24" viewBox="0 0 24 24" fill="none" xmlns="http://www.w3.org/2000/svg">
<path fill-rule="evenodd" clip-rule="evenodd" d="M3.75 5.31129C3.75 4.03535 4.7902 3 6.07212 3C7.35323 3 8.39343 4.03535 8.39423 5.31129C8.39423 6.58723 7.35403 7.64423 6.07212 7.64423C4.7902 7.64423 3.75 6.58723 3.75 5.31129ZM3.75 8.30764H7.73077V20.2499H3.75V8.30764ZM20.9958 20.2499V20.2492H21.0002V13.8498C21.0002 10.7192 20.3261 8.30764 16.6656 8.30764C14.9059 8.30764 13.725 9.27314 13.2429 10.1885H13.192V8.59991H9.7213V20.2492H13.3352V14.4809C13.3352 12.9621 13.6232 11.4935 15.5043 11.4935C17.3578 11.4935 17.3855 13.2268 17.3855 14.5783V20.2499H20.9958Z" fill="black"/>
</svg>
