<svg width="108" height="20" viewBox="0 0 108 20" fill="none" xmlns="http://www.w3.org/2000/svg">
<path fill-rule="evenodd" clip-rule="evenodd" d="M20.0114 5.36855C20.0114 7.343 18.9563 9.06742 17.3858 10C18.9563 10.9326 20.0114 12.657 20.0114 14.6315C20.0114 17.5964 17.6337 20 14.7008 20C12.6645 20 10.8969 18.8409 10.0057 17.1404C9.1145 18.8409 7.34688 20 5.31055 20C2.37765 20 0 17.5964 0 14.6315C0 12.657 1.0551 10.9326 2.6256 10C1.0551 9.06742 0 7.343 0 5.36855C0 2.40362 2.37765 0 5.31055 0C7.34688 0 9.1145 1.15912 10.0057 2.85963C10.8969 1.15912 12.6645 0 14.7008 0C17.6337 0 20.0114 2.40362 20.0114 5.36855ZM39.2337 15.3101C38.4699 15.9253 37.3812 16.2386 35.9676 16.25H31.1285V3.80859H35.4889C36.9993 3.80859 38.145 4.0977 38.9259 4.6759C39.7067 5.25411 40.0972 6.10148 40.0972 7.21802C40.0972 7.82756 39.9404 8.36446 39.6269 8.82874C39.3135 9.29301 38.8774 9.63338 38.3188 9.84985C38.9572 10.0094 39.4602 10.3312 39.8279 10.8154C40.1955 11.2996 40.3793 11.8921 40.3793 12.5928C40.3793 13.7891 39.9974 14.6948 39.2337 15.3101ZM33.6931 9.021H35.5912C36.8851 8.99821 37.532 8.48267 37.532 7.47437C37.532 6.9104 37.3681 6.50452 37.0404 6.25671C36.7126 6.00891 36.1954 5.88501 35.4886 5.88501H33.6931V9.021ZM35.8904 14.1907H33.6931V10.8325H36.0443C37.2242 10.8496 37.8141 11.4278 37.8141 12.5671C37.8141 13.0741 37.6446 13.4715 37.3054 13.7592C36.9663 14.0468 36.4946 14.1907 35.8904 14.1907ZM49.2389 16.25V18.1812H41.4501V16.25H49.2389ZM53.9781 16.4209C55.1238 16.4209 56.0586 16.1603 56.7824 15.639C57.5063 15.1178 57.8683 14.4356 57.8683 13.5925C57.8683 12.4133 57.2156 11.5845 55.9104 11.106C55.4886 10.9521 54.9699 10.814 54.3543 10.6915C53.7387 10.5691 53.3013 10.4238 53.0419 10.2557C52.7826 10.0877 52.6529 9.86694 52.6529 9.59351C52.6529 9.30298 52.7669 9.06372 52.9949 8.87573C53.2229 8.68774 53.5449 8.59375 53.961 8.59375C54.4455 8.59375 54.8018 8.70911 55.0297 8.93982C55.2577 9.17053 55.3717 9.46248 55.3717 9.81567H57.8426C57.8426 8.9327 57.4907 8.21493 56.7867 7.66235C56.0828 7.10978 55.1437 6.8335 53.9696 6.8335C52.8695 6.8335 51.9789 7.10836 51.2978 7.65808C50.6166 8.2078 50.2761 8.89282 50.2761 9.71313C50.2761 11.1202 51.3761 12.0544 53.5763 12.5159C54.2375 12.6526 54.7177 12.8078 55.0169 12.9816C55.3162 13.1553 55.4658 13.3931 55.4658 13.6951C55.4658 13.9856 55.3447 14.2206 55.1024 14.4C54.8602 14.5795 54.5025 14.6692 54.0294 14.6692C53.5221 14.6692 53.1174 14.5524 52.8153 14.3188C52.5133 14.0853 52.3508 13.7492 52.328 13.3105H49.9854C49.9854 13.8688 50.1564 14.3886 50.4984 14.87C50.8404 15.3514 51.312 15.7302 51.9133 16.0065C52.5147 16.2828 53.2029 16.4209 53.9781 16.4209ZM63.5987 18.1726C63.0458 19.3803 62.1338 19.9841 60.8628 19.9841C60.5037 19.9841 60.1389 19.93 59.7684 19.8218V17.9504L60.1446 17.959C60.612 17.959 60.9611 17.8878 61.1919 17.7454C61.4228 17.6029 61.6037 17.3665 61.7348 17.0361L62.0255 16.2756L58.7852 7.00439H61.4441L63.1627 12.7551L64.8726 7.00439H67.523L63.8039 17.6855L63.5987 18.1726ZM72.2705 16.4209C73.4161 16.4209 74.3509 16.1603 75.0748 15.639C75.7987 15.1178 76.1606 14.4356 76.1606 13.5925C76.1606 12.4133 75.508 11.5845 74.2027 11.106C73.7809 10.9521 73.2622 10.814 72.6467 10.6915C72.0311 10.5691 71.5936 10.4238 71.3343 10.2557C71.0749 10.0877 70.9453 9.86694 70.9453 9.59351C70.9453 9.30298 71.0592 9.06372 71.2872 8.87573C71.5152 8.68774 71.8373 8.59375 72.2534 8.59375C72.7379 8.59375 73.0941 8.70911 73.3221 8.93982C73.5501 9.17053 73.6641 9.46248 73.6641 9.81567H76.135C76.135 8.9327 75.783 8.21493 75.0791 7.66235C74.3751 7.10978 73.4361 6.8335 72.2619 6.8335C71.1618 6.8335 70.2712 7.10836 69.5901 7.65808C68.909 8.2078 68.5684 8.89282 68.5684 9.71313C68.5684 11.1202 69.6685 12.0544 71.8686 12.5159C72.5298 12.6526 73.01 12.8078 73.3093 12.9816C73.6085 13.1553 73.7581 13.3931 73.7581 13.6951C73.7581 13.9856 73.637 14.2206 73.3948 14.4C73.1525 14.5795 72.7949 14.6692 72.3218 14.6692C71.8145 14.6692 71.4098 14.5524 71.1077 14.3188C70.8056 14.0853 70.6432 13.7492 70.6204 13.3105H68.2777C68.2777 13.8688 68.4487 14.3886 68.7907 14.87C69.1327 15.3514 69.6044 15.7302 70.2057 16.0065C70.807 16.2828 71.4953 16.4209 72.2705 16.4209ZM82.6348 16.1987C82.1503 16.3468 81.6516 16.4209 81.1386 16.4209C79.4059 16.4209 78.5224 15.5465 78.4882 13.7976V8.81592H77.1373V7.00439H78.4882V4.73145H80.9591V7.00439H82.5408V8.81592H80.9591V13.4302C80.9591 13.772 81.0246 14.0169 81.1557 14.165C81.2868 14.3132 81.5376 14.3872 81.9081 14.3872C82.1817 14.3872 82.4239 14.3673 82.6348 14.3274V16.1987ZM88.4253 16.4209C89.1948 16.4209 89.8959 16.2742 90.5286 15.9808C91.1612 15.6875 91.6628 15.2787 92.0333 14.7546L90.8193 13.396C90.2835 14.0853 89.5396 14.4299 88.5878 14.4299C87.9722 14.4299 87.4635 14.2476 87.0616 13.8831C86.6598 13.5185 86.419 13.0343 86.3392 12.4304H92.23V11.4221C92.23 9.95809 91.8666 8.82731 91.1399 8.02979C90.4131 7.23226 89.4171 6.8335 88.1517 6.8335C87.3081 6.8335 86.5572 7.03145 85.8988 7.42737C85.2405 7.82328 84.7318 8.38725 84.3727 9.11926C84.0136 9.85128 83.8341 10.6816 83.8341 11.6101V11.8494C83.8341 13.2336 84.2601 14.3416 85.1123 15.1733C85.9644 16.005 87.0687 16.4209 88.4253 16.4209ZM86.3648 10.7471H89.8018V10.5505C89.7904 10.0037 89.6422 9.58069 89.3572 9.28162C89.0723 8.98254 88.6676 8.83301 88.1432 8.83301C87.653 8.83301 87.2554 8.99821 86.9505 9.32861C86.6455 9.65902 86.4503 10.1318 86.3648 10.7471ZM96.3529 9.71313C96.6664 9.13208 97.1737 8.84155 97.8748 8.84155C98.382 8.84155 98.7411 8.96118 98.952 9.20044C99.1629 9.4397 99.2684 9.82707 99.2684 10.3625V16.25H101.739L101.731 9.90112C102.016 9.19474 102.529 8.84155 103.27 8.84155C103.788 8.84155 104.15 8.96261 104.355 9.20471C104.561 9.44682 104.663 9.82992 104.663 10.354V16.25H107.143V10.3455C107.143 9.17196 106.898 8.29325 106.407 7.70935C105.917 7.12545 105.171 6.8335 104.167 6.8335C102.965 6.8335 102.038 7.30347 101.389 8.24341C100.944 7.30347 100.126 6.8335 98.9349 6.8335C97.8178 6.8335 96.9314 7.23511 96.2759 8.03833L96.199 7.00439H93.882V16.25H96.3529V9.71313Z" fill="black"/>
</svg>
