<svg width="18" height="18" viewBox="0 0 18 18" fill="none" xmlns="http://www.w3.org/2000/svg">
<path fill-rule="evenodd" clip-rule="evenodd" d="M0.708458 16.5805L4.81025 12.4787C3.70996 11.2137 3.04379 9.56325 3.04379 7.75936C3.04379 3.78855 6.27358 0.5625 10.2406 0.5625C14.2115 0.5625 17.4375 3.79229 17.4375 7.75936C17.4375 11.7264 14.2077 14.9562 10.2406 14.9562C8.43675 14.9562 6.7863 14.29 5.52133 13.1897L1.41953 17.2915C1.32223 17.3888 1.19124 17.4412 1.064 17.4412C0.936752 17.4412 0.805763 17.3926 0.708458 17.2915C0.513847 17.0969 0.513847 16.7751 0.708458 16.5805ZM16.4305 7.75936C16.4305 4.34619 13.6535 1.57299 10.2441 1.57299C6.83091 1.57299 4.05771 4.34993 4.05771 7.75936C4.05771 11.1688 6.83091 13.9495 10.2441 13.9495C13.6535 13.9495 16.4305 11.1725 16.4305 7.75936Z" fill="white"/>
</svg>
