<svg width="20" height="20" viewBox="0 0 20 20" fill="none" xmlns="http://www.w3.org/2000/svg">
<path fill-rule="evenodd" clip-rule="evenodd" d="M1.25 1.875C0.904822 1.875 0.625 2.15482 0.625 2.5C0.625 2.84518 0.904823 3.125 1.25 3.125H18.75C19.0952 3.125 19.375 2.84518 19.375 2.5C19.375 2.15482 19.0952 1.875 18.75 1.875H1.25ZM0.625 10C0.625 9.65482 0.904822 9.375 1.25 9.375H18.75C19.0952 9.375 19.375 9.65482 19.375 10C19.375 10.3452 19.0952 10.625 18.75 10.625H1.25C0.904823 10.625 0.625 10.3452 0.625 10ZM0.625 17.5C0.625 17.1548 0.904822 16.875 1.25 16.875H18.75C19.0952 16.875 19.375 17.1548 19.375 17.5C19.375 17.8452 19.0952 18.125 18.75 18.125H1.25C0.904823 18.125 0.625 17.8452 0.625 17.5Z" fill="black"/>
</svg>
