<svg width="18" height="18" viewBox="0 0 18 18" fill="none" xmlns="http://www.w3.org/2000/svg">
<path fill-rule="evenodd" clip-rule="evenodd" d="M1.125 1.6875C0.81434 1.6875 0.5625 1.93934 0.5625 2.25C0.5625 2.56066 0.81434 2.8125 1.125 2.8125H16.875C17.1857 2.8125 17.4375 2.56066 17.4375 2.25C17.4375 1.93934 17.1857 1.6875 16.875 1.6875H1.125ZM0.5625 9C0.5625 8.68934 0.81434 8.4375 1.125 8.4375H16.875C17.1857 8.4375 17.4375 8.68934 17.4375 9C17.4375 9.31066 17.1857 9.5625 16.875 9.5625H1.125C0.81434 9.5625 0.5625 9.31066 0.5625 9ZM0.5625 15.75C0.5625 15.4393 0.81434 15.1875 1.125 15.1875H16.875C17.1857 15.1875 17.4375 15.4393 17.4375 15.75C17.4375 16.0607 17.1857 16.3125 16.875 16.3125H1.125C0.81434 16.3125 0.5625 16.0607 0.5625 15.75Z" fill="white"/>
</svg>
