<svg width="24" height="24" viewBox="0 0 24 24" fill="none" xmlns="http://www.w3.org/2000/svg">
<path fill-rule="evenodd" clip-rule="evenodd" d="M11.2727 19.2727C11.2727 19.6744 11.5983 20 12 20C12.4017 20 12.7273 19.6744 12.7273 19.2727V12.7273H19.2727C19.6744 12.7273 20 12.4017 20 12C20 11.5983 19.6744 11.2727 19.2727 11.2727H12.7273V4.72727C12.7273 4.32561 12.4017 4 12 4C11.5983 4 11.2727 4.32561 11.2727 4.72727V11.2727H4.72727C4.32561 11.2727 4 11.5983 4 12C4 12.4017 4.32561 12.7273 4.72727 12.7273H11.2727V19.2727Z" fill="white"/>
</svg>
