<svg width="42" height="30" viewBox="0 0 42 30" fill="none" xmlns="http://www.w3.org/2000/svg">
<path fill-rule="evenodd" clip-rule="evenodd" d="M32.8967 29.7924C35.2894 29.7924 37.2679 29.1532 38.8323 27.8749C40.3968 26.5965 41.179 24.8616 41.179 22.6701C41.179 20.296 40.4658 18.4242 39.0394 17.0545C37.613 15.6848 35.7035 15.2282 33.3108 15.6848C33.1268 13.3107 33.7249 11.3019 35.1053 9.65825C36.4857 8.01465 38.2802 6.69063 40.4888 5.6862L36.7618 0.20752C35.5654 0.572765 34.1851 1.21195 32.6206 2.12506C31.0562 3.03817 29.5838 4.24805 28.2034 5.75469C26.823 7.26133 25.6497 9.15604 24.6834 11.4388C23.7172 13.7216 23.234 16.4153 23.234 19.5199C23.234 22.8984 24.1083 25.4551 25.8568 27.19C27.6052 28.925 29.9519 29.7924 32.8967 29.7924ZM10.5872 29.7924C12.9799 29.7924 14.9584 29.1532 16.5229 27.8749C18.0873 26.5965 18.8695 24.8616 18.8695 22.6701C18.8695 20.296 18.1563 18.4242 16.7299 17.0545C15.3035 15.6848 13.394 15.2282 11.0013 15.6848C10.8173 13.3107 11.4155 11.3019 12.7958 9.65825C14.1762 8.01465 15.9707 6.69063 18.1793 5.6862L14.4523 0.20752C13.256 0.572765 11.8756 1.21195 10.3111 2.12506C8.74672 3.03817 7.27431 4.24805 5.89393 5.75469C4.51355 7.26133 3.34023 9.15604 2.37396 11.4388C1.40769 13.7216 0.924561 16.4153 0.924561 19.5199C0.924561 22.8984 1.7988 25.4551 3.54728 27.19C5.29576 28.925 7.64241 29.7924 10.5872 29.7924Z" fill="black"/>
</svg>
