<svg width="24" height="24" viewBox="0 0 24 24" fill="none" xmlns="http://www.w3.org/2000/svg">
<path fill-rule="evenodd" clip-rule="evenodd" d="M12.2763 2.25C6.70915 2.25083 3.75 5.7524 3.75 9.57049C3.75 11.3408 4.75782 13.5497 6.37152 14.2501C6.83185 14.4536 6.77092 14.2052 7.16694 12.7182C7.19825 12.5944 7.18218 12.4872 7.08063 12.3717C4.7739 9.75242 6.63046 4.36756 11.9471 4.36756C19.6416 4.36756 18.2039 14.8199 13.2858 14.8199C12.0182 14.8199 11.0738 13.843 11.3725 12.6343C11.7347 11.1946 12.4438 9.64692 12.4438 8.60932C12.4438 5.99415 8.47517 6.38211 8.47517 9.84713C8.47517 10.918 8.86103 11.6407 8.86103 11.6407C8.86103 11.6407 7.58412 16.7049 7.34718 17.6511C6.94609 19.2528 7.40134 21.8455 7.44111 22.069C7.46565 22.1919 7.60612 22.231 7.68482 22.1296C7.8109 21.9676 9.35436 19.806 9.78677 18.2434C9.94416 17.6744 10.5898 15.3649 10.5898 15.3649C11.0154 16.1192 12.2424 16.7506 13.5498 16.7506C17.4389 16.7506 20.25 13.3944 20.25 9.22989C20.2365 5.23734 16.7561 2.25 12.2763 2.25Z" fill="black"/>
</svg>
