<svg width="24" height="24" viewBox="0 0 24 24" fill="none" xmlns="http://www.w3.org/2000/svg">
<path fill-rule="evenodd" clip-rule="evenodd" d="M2.25 9.62014C2.25 4.31702 6.56702 0 11.8701 0C17.1733 0 21.4903 4.31702 21.5001 9.62014C21.5001 10.2238 21.4399 10.8325 21.3291 11.4264C21.3242 11.4614 21.3041 11.5674 21.2637 11.7484C21.1178 12.4024 20.9014 13.0365 20.6196 13.6453C19.5834 16.0856 17.299 19.8338 12.3028 23.8489C12.177 23.9496 12.0261 24 11.875 24C11.7242 24 11.5731 23.9496 11.4473 23.8489C6.44614 19.8338 4.16697 16.0856 3.1305 13.6453C2.84874 13.0365 2.63226 12.3975 2.4866 11.7484C2.44629 11.5674 2.42616 11.4614 2.42101 11.4264C2.30528 10.8325 2.25 10.2238 2.25 9.62014ZM19.9785 11.2048C19.9798 11.1998 19.9811 11.1949 19.9811 11.19C20.0816 10.6768 20.1319 10.1483 20.1319 9.61496C20.1319 5.06159 16.4237 1.35343 11.8704 1.35343C7.31681 1.35343 3.60884 5.06159 3.60884 9.61496C3.60884 10.1434 3.65891 10.6667 3.75966 11.1848C3.75966 11.1931 3.76114 11.1998 3.76247 11.2059C3.76357 11.2109 3.76456 11.2154 3.76456 11.2199C3.76569 11.2254 3.76704 11.2333 3.76879 11.2435C3.77506 11.28 3.78637 11.3459 3.81004 11.4364V11.4465C3.94073 12.01 4.12695 12.5636 4.36846 13.0866C4.37107 13.0892 4.37236 13.0931 4.37363 13.0969C4.37488 13.1006 4.3761 13.1043 4.37852 13.1067C5.31946 15.3357 7.38241 18.7371 11.8704 22.4451C16.3583 18.7371 18.4213 15.3357 19.362 13.1067C19.3646 13.1042 19.3659 13.1003 19.3672 13.0965C19.3684 13.0928 19.3696 13.0891 19.372 13.0866C19.6187 12.5584 19.8049 12.01 19.9307 11.4465V11.4364C19.9558 11.3207 19.971 11.2453 19.9759 11.2199C19.9759 11.2149 19.9772 11.2098 19.9785 11.2048ZM5.76217 9.72585C5.76217 6.35983 8.50435 3.61764 11.8704 3.61764C15.2363 3.61764 17.9783 6.35983 17.9783 9.72585C17.9783 13.0918 15.2363 15.8341 11.8704 15.8341C8.50435 15.8341 5.76217 13.0918 5.76217 9.72585ZM7.12048 9.7258C7.12048 12.3419 9.24877 14.4754 11.8701 14.4754C14.4915 14.4754 16.6197 12.3419 16.6197 9.7258C16.6197 7.10933 14.4864 4.97614 11.8701 4.97614C9.25367 4.97614 7.12048 7.10933 7.12048 9.7258Z" fill="#007EF3"/>
</svg>
