<svg width="24" height="24" viewBox="0 0 24 24" fill="none" xmlns="http://www.w3.org/2000/svg">
<path fill-rule="evenodd" clip-rule="evenodd" d="M21.75 6.32333C21.0527 6.63255 20.3098 6.83752 19.5352 6.93704C20.332 6.45603 20.9402 5.70015 21.2262 4.78908C20.4832 5.23692 19.6629 5.55325 18.7887 5.72977C18.0832 4.97035 17.0777 4.5 15.9809 4.5C13.8527 4.5 12.1395 6.24633 12.1395 8.38717C12.1395 8.69521 12.1652 8.9914 12.2285 9.27337C9.03281 9.1158 6.20508 7.56732 4.30547 5.20848C3.97383 5.7902 3.7793 6.45603 3.7793 7.1728C3.7793 8.51868 4.46484 9.71173 5.48672 10.4024C4.86914 10.3906 4.26328 10.2093 3.75 9.9238C3.75 9.93565 3.75 9.95105 3.75 9.96645C3.75 11.8549 5.08242 13.4236 6.82969 13.7849C6.5168 13.8714 6.17578 13.9129 5.82188 13.9129C5.57578 13.9129 5.32734 13.8986 5.09414 13.8465C5.59219 15.3855 7.00547 16.5169 8.68594 16.5537C7.37813 17.588 5.71758 18.2111 3.91992 18.2111C3.60469 18.2111 3.30234 18.1969 3 18.1578C4.70273 19.2679 6.7207 19.9018 8.89688 19.9018C15.9703 19.9018 19.8375 13.978 19.8375 8.8433C19.8375 8.67151 19.8316 8.50565 19.8234 8.34097C20.5863 7.79361 21.2273 7.11001 21.75 6.32333Z" fill="black"/>
</svg>
