<svg width="24" height="24" viewBox="0 0 24 24" fill="none" xmlns="http://www.w3.org/2000/svg">
<path fill-rule="evenodd" clip-rule="evenodd" d="M21.3482 7.38589C21.1234 6.55069 20.4648 5.89231 19.6295 5.66742C18.1036 5.25 11.9997 5.25 11.9997 5.25C11.9997 5.25 5.89613 5.25 4.37019 5.65159C3.55099 5.87625 2.87627 6.55081 2.65157 7.38589C2.25 8.91136 2.25 12.075 2.25 12.075C2.25 12.075 2.25 15.2545 2.65157 16.7641C2.87651 17.5991 3.53492 18.2575 4.37031 18.4824C5.91219 18.8999 12 18.8999 12 18.8999C12 18.8999 18.1036 18.8999 19.6295 18.4984C20.4649 18.2736 21.1234 17.6152 21.3484 16.7801C21.7498 15.2545 21.7498 12.091 21.7498 12.091C21.7498 12.091 21.7659 8.91136 21.3482 7.38589ZM10.0499 14.9999V9.14993L15.2498 12.0749L10.0499 14.9999Z" fill="black"/>
</svg>
